<svg xmlns="http://www.w3.org/2000/svg" viewBox="0 0 128 128" fill="none">
  <defs>
    <linearGradient id="bg" x1="12" y1="12" x2="116" y2="116" gradientUnits="userSpaceOnUse">
      <stop stop-color="#0f9488"/>
      <stop offset="1" stop-color="#0f766e"/>
    </linearGradient>
    <linearGradient id="glow" x1="22" y1="18" x2="104" y2="110" gradientUnits="userSpaceOnUse">
      <stop stop-color="#5eead4" stop-opacity="0.4"/>
      <stop offset="1" stop-color="#ffffff" stop-opacity="0"/>
    </linearGradient>
  </defs>
  <rect x="12" y="12" width="104" height="104" rx="24" fill="url(#bg)"/>
  <rect x="18" y="18" width="92" height="92" rx="18" fill="url(#glow)"/>
  <path d="M38 44h36c10 0 18 8 18 18v14c0 11-9 20-20 20H60l-12 10v-10h-10c-8 0-14-6-14-14V58c0-8 6-14 14-14Z" stroke="#ffffff" stroke-width="6.5" stroke-linejoin="round" stroke-linecap="round"/>
  <path d="M44 58h28" stroke="#ffffff" stroke-width="6.5" stroke-linecap="round"/>
  <path d="M44 72h20" stroke="#ffffff" stroke-width="6.5" stroke-linecap="round"/>
  <circle cx="90" cy="44" r="7" fill="#99f6e4" fill-opacity="0.95"/>
</svg>
